HIERARCHY
ROOT Hips
{
	OFFSET 0.000000 0.000000 0.000000
	CHANNELS 6 Xposition Yposition Zposition Yrotation Xrotation Zrotation
	JOINT Spine
	{
		OFFSET 0.000000 0.000000 -0.744707
		CHANNELS 6 Xposition Yposition Zposition Yrotation Xrotation Zrotation
		JOINT Spine1
		{
			OFFSET 0.000000 0.000000 -2.032240
			CHANNELS 6 Xposition Yposition Zposition Yrotation Xrotation Zrotation
			JOINT Neck
			{
				OFFSET 0.000000 0.000000 -2.213880
				CHANNELS 6 Xposition Yposition Zposition Yrotation Xrotation Zrotation
				JOINT Head
				{
					OFFSET 0.000000 0.181636 -1.407680
					CHANNELS 6 Xposition Yposition Zposition Yrotation Xrotation Zrotation
					End Site
					{
						OFFSET 0.000000 0.000000 -1.816356
					}
				}
			}
			JOINT LeftShoulder
			{
				OFFSET 0.365767 -0.048012 -1.787590
				CHANNELS 6 Xposition Yposition Zposition Yrotation Xrotation Zrotation
				JOINT LeftArm
				{
					OFFSET 1.305160 0.000000 0.000000
					CHANNELS 6 Xposition Yposition Zposition Yrotation Xrotation Zrotation
					JOINT LeftForeArm
					{
						OFFSET 2.559210 0.000000 0.000000
						CHANNELS 6 Xposition Yposition Zposition Yrotation Xrotation Zrotation
						JOINT LeftHand
						{
							OFFSET 2.378450 0.000000 0.000000
							CHANNELS 6 Xposition Yposition Zposition Yrotation Xrotation Zrotation
							End Site
							{
								OFFSET 1.362267 0.000000 0.000000
							}
						}
					}
				}
			}
			JOINT RightShoulder
			{
				OFFSET -0.360721 -0.048012 -1.787590
				CHANNELS 6 Xposition Yposition Zposition Yrotation Xrotation Zrotation
				JOINT RightArm
				{
					OFFSET -1.305160 0.000000 0.000000
					CHANNELS 6 Xposition Yposition Zposition Yrotation Xrotation Zrotation
					JOINT RightForeArm
					{
						OFFSET -2.559210 0.000000 0.000000
						CHANNELS 6 Xposition Yposition Zposition Yrotation Xrotation Zrotation
						JOINT RightHand
						{
							OFFSET -2.378450 0.000000 0.000000
							CHANNELS 6 Xposition Yposition Zposition Yrotation Xrotation Zrotation
							End Site
							{
								OFFSET -1.362267 0.000000 0.000000
							}
						}
					}
				}
			}
		}
	}
	JOINT LeftUpLeg
	{
		OFFSET 0.908180 0.000000 0.000000
		CHANNELS 6 Xposition Yposition Zposition Yrotation Xrotation Zrotation
		JOINT LeftLeg
		{
			OFFSET 0.000000 -0.000003 3.819490
			CHANNELS 6 Xposition Yposition Zposition Yrotation Xrotation Zrotation
			JOINT LeftFoot
			{
				OFFSET 0.000000 -0.000003 4.004300
				CHANNELS 6 Xposition Yposition Zposition Yrotation Xrotation Zrotation
				JOINT LeftToeBase
				{
					OFFSET 0.000000 1.362270 0.590317
					CHANNELS 6 Xposition Yposition Zposition Yrotation Xrotation Zrotation
					End Site
					{
						OFFSET 0.000000 0.363271 0.000000
					}
				}
			}
		}
	}
	JOINT RightUpLeg
	{
		OFFSET -0.908180 0.000000 0.000000
		CHANNELS 6 Xposition Yposition Zposition Yrotation Xrotation Zrotation
		JOINT RightLeg
		{
			OFFSET 0.000000 -0.000003 3.819490
			CHANNELS 6 Xposition Yposition Zposition Yrotation Xrotation Zrotation
			JOINT RightFoot
			{
				OFFSET 0.000000 -0.000003 4.004300
				CHANNELS 6 Xposition Yposition Zposition Yrotation Xrotation Zrotation
				JOINT RightToeBase
				{
					OFFSET 0.000000 1.362270 0.590317
					CHANNELS 6 Xposition Yposition Zposition Yrotation Xrotation Zrotation
					End Site
					{
						OFFSET 0.000000 0.363271 0.000000
					}
				}
			}
		}
	}
}
MOTION
Frames: 4
Frame Time: 0.016667
-1.172897 1.838407 -7.610187 1.351876 9.127270 0.400950 -0.000000 -0.000000 -0.744706 -4.747566 -17.619810 3.571485 0.000000 0.000003 -2.032241 12.318027 5.845724 1.584983 0.000000 0.000001 -2.213884 0.789879 12.502161 -3.197104 0.000000 0.181636 -1.407679 -7.503105 1.172434 -4.538614 0.365767 -0.048012 -1.787591 21.344963 -8.119340 -2.807385 1.305162 -0.000000 -0.000003 -3.749342 -9.318989 12.912175 2.559211 -0.000000 0.000001 -2.171794 -5.884603 -0.441123 2.378450 0.000001 0.000001 -3.935643 -6.547189 -19.463341 -0.360721 -0.048011 -1.787591 -16.816506 1.089720 5.479445 -1.305160 -0.000000 -0.000002 -0.096227 37.556908 -26.584800 -2.559210 0.000001 0.000001 -33.883745 -27.295073 -74.724879 -2.378452 -0.000000 -0.000000 -47.413831 3.843766 11.508351 0.908180 -0.000000 0.000001 17.985333 -17.742246 -15.967637 -0.000000 -0.000002 3.819490 -2.108369 22.635997 -4.510753 -0.000000 -0.000003 4.004301 -8.602441 -1.914897 -17.967706 -0.000000 1.362270 0.590317 0.000003 0.000004 0.000006 -0.908180 -0.000000 0.000001 -22.827679 -22.234006 5.495169 0.000001 -0.000003 3.819489 12.013118 30.345824 -13.423724 0.000001 -0.000002 4.004301 4.670016 -15.762734 48.048567 -0.000000 1.362269 0.590315 -0.000004 0.000006 0.000001 
-1.173770 1.838430 -7.610147 1.344329 9.126590 0.408119 0.000000 -0.000000 -0.744704 -4.740687 -17.627805 3.565409 -0.000000 0.000002 -2.032236 12.321246 5.850676 1.584002 0.000000 0.000000 -2.213880 0.805401 12.519049 -3.247303 -0.000000 0.181637 -1.407682 -7.510096 1.115577 -4.591646 0.365767 -0.048011 -1.787588 21.334548 -8.126928 -2.801318 1.305162 -0.000000 -0.000001 -3.745340 -9.326389 12.906348 2.559210 -0.000002 0.000000 -2.185633 -5.889277 -0.446008 2.378452 -0.000000 0.000002 -3.885160 -6.543556 -19.476870 -0.360721 -0.048011 -1.787587 -16.821677 1.087864 5.471941 -1.305161 -0.000000 0.000003 -0.118852 37.618264 -26.574704 -2.559211 0.000001 0.000000 -33.934507 -27.357621 -74.684075 -2.378449 0.000001 0.000002 -47.421706 3.790080 11.489598 0.908180 -0.000000 0.000001 17.995020 -17.733628 -15.945669 -0.000000 -0.000002 3.819489 -2.111133 22.626929 -4.534392 -0.000001 -0.000001 4.004302 -8.648529 -1.919028 -17.975106 -0.000000 1.362270 0.590317 0.000000 -0.000000 -0.000000 -0.908180 -0.000000 0.000002 -22.810183 -22.233391 5.497711 0.000001 -0.000003 3.819489 12.007443 30.339168 -13.410873 0.000002 -0.000001 4.004301 4.663911 -15.758114 48.025819 -0.000000 1.362270 0.590316 0.000001 0.000004 0.000002 
-1.174628 1.838608 -7.609982 1.344085 9.119469 0.407936 -0.000000 -0.000000 -0.744707 -4.742431 -17.623380 3.565516 0.000000 0.000000 -2.032241 12.324188 5.847206 1.583808 -0.000000 0.000000 -2.213879 0.814073 12.516479 -3.306461 -0.000000 0.181637 -1.407684 -7.495099 1.089734 -4.651043 0.365767 -0.048012 -1.787591 21.319918 -8.134657 -2.798114 1.305161 -0.000000 -0.000003 -3.732702 -9.299861 12.900074 2.559211 -0.000001 -0.000004 -2.192222 -5.896885 -0.445749 2.378449 0.000000 0.000002 -3.881967 -6.550772 -19.482003 -0.360722 -0.048012 -1.787589 -16.825611 1.101275 5.477770 -1.305161 -0.000000 -0.000002 -0.134749 37.613189 -26.576560 -2.559210 0.000001 0.000002 -33.931656 -27.374606 -74.691793 -2.378450 0.000001 0.000000 -47.427792 3.791163 11.530152 0.908180 -0.000000 -0.000000 17.995295 -17.724076 -15.921427 -0.000000 -0.000002 3.819490 -2.109295 22.619239 -4.518218 -0.000001 -0.000002 4.004299 -8.611594 -1.913336 -18.006003 -0.000000 1.362270 0.590317 -0.000001 -0.000001 0.000006 -0.908180 -0.000000 -0.000001 -22.805657 -22.226948 5.518680 -0.000001 -0.000003 3.819489 11.996201 30.349420 -13.455408 0.000001 -0.000001 4.004298 4.630063 -15.753630 48.037960 -0.000000 1.362270 0.590317 0.000001 0.000005 0.000005 
-1.175332 1.838418 -7.609899 1.334996 9.118958 0.417287 0.000000 0.000000 -0.744708 -4.728495 -17.628230 3.556997 0.000000 0.000000 -2.032238 12.323503 5.851979 1.582189 -0.000000 0.000000 -2.213878 0.821518 12.517614 -3.357809 0.000000 0.181636 -1.407676 -7.485256 1.056311 -4.702333 0.365767 -0.048012 -1.787590 21.323994 -8.139742 -2.805926 1.305160 0.000000 0.000001 -3.745849 -9.271022 12.901361 2.559212 -0.000001 -0.000002 -2.187101 -5.906452 -0.441445 2.378449 0.000000 0.000002 -3.884639 -6.561267 -19.493146 -0.360721 -0.048012 -1.787588 -16.840648 1.095968 5.473367 -1.305161 0.000001 -0.000000 -0.114781 37.599761 -26.555757 -2.559209 -0.000001 -0.000001 -33.916957 -27.365158 -74.715535 -2.378450 0.000000 0.000002 -47.430278 3.806930 11.543195 0.908180 -0.000000 0.000000 18.001775 -17.716894 -15.882037 -0.000000 -0.000002 3.819490 -2.110486 22.605735 -4.559643 -0.000000 -0.000002 4.004301 -8.616585 -1.914880 -18.010620 0.000000 1.362270 0.590317 0.000002 0.000003 -0.000007 -0.908180 -0.000000 -0.000001 -22.790232 -22.243454 5.515750 0.000001 -0.000002 3.819490 11.999136 30.370825 -13.480295 0.000001 -0.000001 4.004301 4.633656 -15.761602 48.059714 0.000000 1.362268 0.590317 0.000000 0.000000 0.000003 
